<svg xmlns="http://www.w3.org/2000/svg" width="62" height="62" viewBox="0 0 62 62" fill="none"><circle cx="31" cy="31" r="31" fill="#5BC5D1"></circle><path d="M30.26 31.36C30.26 32.872 30.096 34.18 29.768 35.284C29.448 36.388 29.004 37.304 28.436 38.032C27.868 38.76 27.2 39.3 26.432 39.652C25.664 40.004 24.836 40.18 23.948 40.18C23.06 40.18 22.232 40.004 21.464 39.652C20.696 39.3 20.028 38.76 19.46 38.032C18.9 37.304 18.46 36.388 18.14 35.284C17.82 34.18 17.66 32.872 17.66 31.36C17.66 29.848 17.82 28.54 18.14 27.436C18.46 26.324 18.9 25.408 19.46 24.688C20.028 23.96 20.696 23.42 21.464 23.068C22.232 22.708 23.06 22.528 23.948 22.528C24.836 22.528 25.664 22.708 26.432 23.068C27.2 23.42 27.868 23.96 28.436 24.688C29.004 25.408 29.448 26.324 29.768 27.436C30.096 28.54 30.26 29.848 30.26 31.36ZM27.596 31.36C27.596 30.08 27.492 29.016 27.284 28.168C27.084 27.312 26.816 26.628 26.48 26.116C26.144 25.604 25.756 25.24 25.316 25.024C24.876 24.808 24.42 24.7 23.948 24.7C23.468 24.7 23.008 24.808 22.568 25.024C22.136 25.24 21.752 25.604 21.416 26.116C21.08 26.628 20.812 27.312 20.612 28.168C20.412 29.016 20.312 30.08 20.312 31.36C20.312 32.64 20.412 33.708 20.612 34.564C20.812 35.412 21.08 36.092 21.416 36.604C21.752 37.116 22.136 37.48 22.568 37.696C23.008 37.912 23.468 38.02 23.948 38.02C24.42 38.02 24.876 37.912 25.316 37.696C25.756 37.48 26.144 37.116 26.48 36.604C26.816 36.092 27.084 35.412 27.284 34.564C27.492 33.708 27.596 32.64 27.596 31.36ZM43.2459 38.044V40H33.8259V38.044H37.4259V27.22C37.4259 26.836 37.4379 26.444 37.4619 26.044L34.6899 28.384C34.5699 28.48 34.4459 28.544 34.3179 28.576C34.1979 28.6 34.0819 28.6 33.9699 28.576C33.8659 28.552 33.7699 28.516 33.6819 28.468C33.6019 28.412 33.5379 28.352 33.4899 28.288L32.6859 27.16L37.8939 22.684H39.9939V38.044H43.2459Z" fill="white"></path></svg>