<svg xmlns="http://www.w3.org/2000/svg" width="62" height="62" viewBox="0 0 62 62" fill="none"><circle cx="31" cy="31" r="31" fill="#5BC5D1"></circle><path d="M30.26 31.36C30.26 32.872 30.096 34.18 29.768 35.284C29.448 36.388 29.004 37.304 28.436 38.032C27.868 38.76 27.2 39.3 26.432 39.652C25.664 40.004 24.836 40.18 23.948 40.18C23.06 40.18 22.232 40.004 21.464 39.652C20.696 39.3 20.028 38.76 19.46 38.032C18.9 37.304 18.46 36.388 18.14 35.284C17.82 34.18 17.66 32.872 17.66 31.36C17.66 29.848 17.82 28.54 18.14 27.436C18.46 26.324 18.9 25.408 19.46 24.688C20.028 23.96 20.696 23.42 21.464 23.068C22.232 22.708 23.06 22.528 23.948 22.528C24.836 22.528 25.664 22.708 26.432 23.068C27.2 23.42 27.868 23.96 28.436 24.688C29.004 25.408 29.448 26.324 29.768 27.436C30.096 28.54 30.26 29.848 30.26 31.36ZM27.596 31.36C27.596 30.08 27.492 29.016 27.284 28.168C27.084 27.312 26.816 26.628 26.48 26.116C26.144 25.604 25.756 25.24 25.316 25.024C24.876 24.808 24.42 24.7 23.948 24.7C23.468 24.7 23.008 24.808 22.568 25.024C22.136 25.24 21.752 25.604 21.416 26.116C21.08 26.628 20.812 27.312 20.612 28.168C20.412 29.016 20.312 30.08 20.312 31.36C20.312 32.64 20.412 33.708 20.612 34.564C20.812 35.412 21.08 36.092 21.416 36.604C21.752 37.116 22.136 37.48 22.568 37.696C23.008 37.912 23.468 38.02 23.948 38.02C24.42 38.02 24.876 37.912 25.316 37.696C25.756 37.48 26.144 37.116 26.48 36.604C26.816 36.092 27.084 35.412 27.284 34.564C27.492 33.708 27.596 32.64 27.596 31.36ZM42.7299 37.564C43.0099 37.564 43.2299 37.648 43.3899 37.816C43.5499 37.976 43.6299 38.184 43.6299 38.44V40H31.9419V39.124C31.9419 38.948 31.9779 38.764 32.0499 38.572C32.1219 38.38 32.2379 38.204 32.3979 38.044L37.7739 32.656C38.2299 32.2 38.6339 31.764 38.9859 31.348C39.3459 30.932 39.6499 30.516 39.8979 30.1C40.1539 29.684 40.3459 29.264 40.4739 28.84C40.6099 28.408 40.6779 27.956 40.6779 27.484C40.6779 27.028 40.6059 26.628 40.4619 26.284C40.3259 25.932 40.1339 25.644 39.8859 25.42C39.6459 25.188 39.3539 25.016 39.0099 24.904C38.6739 24.784 38.3019 24.724 37.8939 24.724C37.5019 24.724 37.1379 24.78 36.8019 24.892C36.4739 25.004 36.1779 25.16 35.9139 25.36C35.6579 25.56 35.4419 25.8 35.2659 26.08C35.0979 26.352 34.9739 26.652 34.8939 26.98C34.7739 27.308 34.6179 27.528 34.4259 27.64C34.2419 27.752 33.9699 27.776 33.6099 27.712L32.2539 27.472C32.3739 26.656 32.5979 25.94 32.9259 25.324C33.2619 24.708 33.6819 24.196 34.1859 23.788C34.6899 23.372 35.2659 23.06 35.9139 22.852C36.5699 22.636 37.2779 22.528 38.0379 22.528C38.8059 22.528 39.5099 22.644 40.1499 22.876C40.7979 23.1 41.3539 23.424 41.8179 23.848C42.2899 24.264 42.6579 24.772 42.9219 25.372C43.1859 25.972 43.3179 26.648 43.3179 27.4C43.3179 28.04 43.2219 28.632 43.0299 29.176C42.8459 29.72 42.5939 30.24 42.2739 30.736C41.9539 31.232 41.5779 31.716 41.1459 32.188C40.7219 32.652 40.2739 33.124 39.8019 33.604L35.6259 37.876C35.9699 37.78 36.3139 37.704 36.6579 37.648C37.0099 37.592 37.3419 37.564 37.6539 37.564H42.7299Z" fill="white"></path></svg>