<svg xmlns="http://www.w3.org/2000/svg" width="62" height="62" viewBox="0 0 62 62" fill="none"><circle cx="31" cy="31" r="31" fill="#5BC5D1"></circle><path d="M30.26 32.36C30.26 33.872 30.096 35.18 29.768 36.284C29.448 37.388 29.004 38.304 28.436 39.032C27.868 39.76 27.2 40.3 26.432 40.652C25.664 41.004 24.836 41.18 23.948 41.18C23.06 41.18 22.232 41.004 21.464 40.652C20.696 40.3 20.028 39.76 19.46 39.032C18.9 38.304 18.46 37.388 18.14 36.284C17.82 35.18 17.66 33.872 17.66 32.36C17.66 30.848 17.82 29.54 18.14 28.436C18.46 27.324 18.9 26.408 19.46 25.688C20.028 24.96 20.696 24.42 21.464 24.068C22.232 23.708 23.06 23.528 23.948 23.528C24.836 23.528 25.664 23.708 26.432 24.068C27.2 24.42 27.868 24.96 28.436 25.688C29.004 26.408 29.448 27.324 29.768 28.436C30.096 29.54 30.26 30.848 30.26 32.36ZM27.596 32.36C27.596 31.08 27.492 30.016 27.284 29.168C27.084 28.312 26.816 27.628 26.48 27.116C26.144 26.604 25.756 26.24 25.316 26.024C24.876 25.808 24.42 25.7 23.948 25.7C23.468 25.7 23.008 25.808 22.568 26.024C22.136 26.24 21.752 26.604 21.416 27.116C21.08 27.628 20.812 28.312 20.612 29.168C20.412 30.016 20.312 31.08 20.312 32.36C20.312 33.64 20.412 34.708 20.612 35.564C20.812 36.412 21.08 37.092 21.416 37.604C21.752 38.116 22.136 38.48 22.568 38.696C23.008 38.912 23.468 39.02 23.948 39.02C24.42 39.02 24.876 38.912 25.316 38.696C25.756 38.48 26.144 38.116 26.48 37.604C26.816 37.092 27.084 36.412 27.284 35.564C27.492 34.708 27.596 33.64 27.596 32.36ZM32.3379 28.472C32.4579 27.656 32.6819 26.94 33.0099 26.324C33.3459 25.708 33.7659 25.196 34.2699 24.788C34.7739 24.372 35.3499 24.06 35.9979 23.852C36.6539 23.636 37.3619 23.528 38.1219 23.528C38.8899 23.528 39.5859 23.64 40.2099 23.864C40.8419 24.08 41.3819 24.384 41.8299 24.776C42.2859 25.168 42.6339 25.636 42.8739 26.18C43.1219 26.724 43.2459 27.32 43.2459 27.968C43.2459 28.52 43.1779 29.008 43.0419 29.432C42.9139 29.848 42.7259 30.216 42.4779 30.536C42.2379 30.856 41.9419 31.124 41.5899 31.34C41.2379 31.556 40.8419 31.736 40.4019 31.88C41.4739 32.192 42.2779 32.692 42.8139 33.38C43.3499 34.06 43.6179 34.916 43.6179 35.948C43.6179 36.78 43.4619 37.52 43.1499 38.168C42.8379 38.816 42.4139 39.364 41.8779 39.812C41.3499 40.26 40.7299 40.604 40.0179 40.844C39.3139 41.076 38.5659 41.192 37.7739 41.192C36.8859 41.192 36.1179 41.088 35.4699 40.88C34.8219 40.664 34.2619 40.36 33.7899 39.968C33.3259 39.568 32.9379 39.088 32.6259 38.528C32.3139 37.968 32.0499 37.34 31.8339 36.644L32.9499 36.176C33.2459 36.048 33.5259 36.012 33.7899 36.068C34.0619 36.124 34.2579 36.272 34.3779 36.512C34.5059 36.768 34.6499 37.044 34.8099 37.34C34.9699 37.628 35.1739 37.896 35.4219 38.144C35.6779 38.384 35.9899 38.588 36.3579 38.756C36.7339 38.916 37.1939 38.996 37.7379 38.996C38.2899 38.996 38.7699 38.908 39.1779 38.732C39.5939 38.548 39.9379 38.316 40.2099 38.036C40.4899 37.748 40.6979 37.428 40.8339 37.076C40.9699 36.724 41.0379 36.376 41.0379 36.032C41.0379 35.6 40.9859 35.204 40.8819 34.844C40.7779 34.476 40.5739 34.164 40.2699 33.908C39.9739 33.652 39.5499 33.452 38.9979 33.308C38.4539 33.156 37.7379 33.08 36.8499 33.08V31.22C37.5779 31.212 38.1899 31.14 38.6859 31.004C39.1899 30.86 39.5899 30.668 39.8859 30.428C40.1899 30.18 40.4059 29.884 40.5339 29.54C40.6699 29.196 40.7379 28.82 40.7379 28.412C40.7379 27.972 40.6699 27.584 40.5339 27.248C40.3979 26.912 40.2059 26.632 39.9579 26.408C39.7179 26.176 39.4299 26.004 39.0939 25.892C38.7579 25.78 38.3859 25.724 37.9779 25.724C37.5859 25.724 37.2219 25.78 36.8859 25.892C36.5579 26.004 36.2619 26.16 35.9979 26.36C35.7419 26.56 35.5259 26.8 35.3499 27.08C35.1739 27.352 35.0459 27.652 34.9659 27.98C34.8539 28.308 34.7019 28.528 34.5099 28.64C34.3259 28.752 34.0539 28.776 33.6939 28.712L32.3379 28.472Z" fill="white"></path></svg>