<svg xmlns="http://www.w3.org/2000/svg" width="72" height="72" viewBox="0 0 72 72" fill="none"><circle cx="36" cy="36" r="36" fill="#5BC5D1"></circle><path d="M41.1884 37.5H37.1259C36.7509 37.5 36.4384 37.1875 36.4384 36.8125C36.4384 36.625 36.5009 36.5 36.6259 36.375C37.4384 35.4375 38.3134 34.5625 39.1884 33.6875C40.1259 32.8125 40.5634 31.875 40.4384 31.125C40.3759 30.6875 40.0009 30.3125 39.5634 30.125C38.3759 29.6875 37.3134 30.875 37.2509 30.9375C37.0009 31.1875 36.6259 31.25 36.3759 31C36.1259 30.75 36.0634 30.375 36.3134 30.125C36.9384 29.375 38.3759 28.3125 40.0009 28.9375C40.8759 29.25 41.5009 30 41.6259 30.875C41.7509 31.5625 41.7509 33 40.0009 34.5625C39.2509 35.25 38.7509 35.75 38.3134 36.1875H41.1259C41.5009 36.1875 41.7509 36.4375 41.7509 36.8125C41.7509 37.1875 41.5009 37.5 41.1884 37.5ZM47.1884 37.5C46.8134 37.5 46.5634 37.25 46.5634 36.875V35.1875H43.1259C42.7509 35.1875 42.4384 34.875 42.4384 34.5C42.4384 34.375 42.5009 34.1875 42.5634 34.0625L46.5634 28.9375C46.8134 28.625 47.2509 28.5625 47.5009 28.8125C47.6884 28.9375 47.7509 29.125 47.7509 29.375V33.9375H48.4384C48.8134 33.9375 49.0634 34.1875 49.0634 34.5625C49.0634 34.9375 48.8134 35.1875 48.4384 35.1875H47.7509V36.875C47.8134 37.1875 47.5009 37.5 47.1884 37.5ZM44.2509 33.9375H46.5634V31L44.2509 33.9375Z" fill="white"></path><path d="M55.5 43.625C55.375 43.3125 55 43.1875 54.6875 43.3125L52.9375 44.0625C54.5 41.6875 55.25 38.9375 55.25 36.125C55.25 28 48.6875 21.375 40.5625 21.375C37.1875 21.375 33.9375 22.5 31.375 24.625L30.375 22L30.3125 21.9375C30.1875 21.6875 29.9375 21.5 29.625 21.4375C27.9375 21.0625 26.125 21.3125 24.625 22.1875C20.875 24.5625 20.75 30.4375 22.125 34.875C25.625 45.75 37.625 54.75 45.125 54.75C45.875 54.75 46.625 54.6875 47.3125 54.4375C50.625 53.6875 53.0625 50.875 53.375 47.5C53.4375 47.0625 53.1875 46.5625 52.8125 46.375C52.5 46.1875 52.125 46.0625 51.75 45.875C51.875 45.875 51.9375 45.8125 52.0625 45.8125L55.125 44.4375C55.5 44.3125 55.625 43.9375 55.5 43.625ZM47 53.25C40.375 55.25 27 45.875 23.375 34.5C22.125 30.5 22.1875 25.25 25.3125 23.1875C26.1875 22.6875 27.1875 22.5 28.1875 22.5C28.5 22.5 28.875 22.5 29.1875 22.5625L32.125 30.125L28.6875 33.25C28.375 33.5 28.25 33.875 28.375 34.25C29.8125 40.3125 34.25 45.1875 40.125 47.125C40.5 47.25 40.875 47.125 41.125 46.875L44.375 43.625C45.625 44.1875 46.9375 44.875 48.25 45.5625C49.5 46.1875 50.875 46.875 52.0625 47.4375C51.4375 51.875 48.3125 52.8125 47 53.25ZM48.875 44.4375C47.5 43.75 46.125 43.0625 44.8125 42.4375C44.4375 42.25 43.9375 42.3125 43.6875 42.625L40.4375 45.875C35.0625 44 31 39.5625 29.6875 34.0625L33.125 30.9375C33.4375 30.625 33.5625 30.125 33.375 29.75L31.875 25.875C37.5 21 46 21.75 50.8125 27.375C52.875 29.8125 54 32.875 54 36.125C54 38.6875 53.25 41.1875 51.875 43.375L51.75 41.5625C51.75 41.1875 51.4375 40.9375 51.0625 41C50.6875 41 50.4375 41.3125 50.5 41.6875L50.8125 45.0625C50.8125 45.1875 50.875 45.3125 50.9375 45.4375C50.25 45.125 49.5625 44.75 48.875 44.4375Z" fill="white"></path></svg>