<svg xmlns="http://www.w3.org/2000/svg" width="72" height="72" viewBox="0 0 72 72" fill="none"><path d="M52.8705 42.6336C52.5075 42.0045 51.9189 41.554 51.2134 41.3649C50.5078 41.1757 49.7727 41.2716 49.1436 41.6349L42.8877 45.2469C42.9023 44.9295 42.8677 44.6117 42.7853 44.3048C42.3429 42.6541 40.6402 41.6707 38.9893 42.1132L36.4226 42.801C35.4401 43.0643 34.5342 42.945 33.6532 42.4364L30.2316 40.4609C28.8671 39.6731 27.4963 40.1876 25.9092 40.7834C25.0039 41.1231 23.9925 41.5026 22.7984 41.7289L22.7272 41.4634C22.5766 40.9016 21.997 40.5669 21.4353 40.7176L19.5477 41.2234C19.4138 41.2589 19.2883 41.3207 19.1784 41.4051C19.0685 41.4895 18.9765 41.5949 18.9077 41.7152C18.838 41.8349 18.7928 41.9673 18.7747 42.1046C18.7565 42.2419 18.7658 42.3815 18.8019 42.5152L22.1847 55.1401C22.3109 55.6108 22.7382 55.922 23.2039 55.922C23.2939 55.922 23.3855 55.9104 23.4766 55.8859L25.3642 55.3801C25.9259 55.2296 26.2605 54.6501 26.11 54.0882L26.104 54.0658C28.8918 53.444 30.6338 53.9406 32.9882 54.6119C33.4124 54.733 33.851 54.858 34.3197 54.9837C34.723 55.0918 35.121 55.1457 35.5126 55.1457C36.2724 55.1457 37.0078 54.9425 37.7095 54.5374L51.8721 46.3603C52.501 45.9973 52.9515 45.4087 53.1405 44.7032C53.3296 43.9977 53.2336 43.2627 52.8705 42.6336ZM23.2864 54.7236L19.9642 42.3249L21.6256 41.8798L24.9478 54.2785L23.2864 54.7236ZM52.0086 44.4C51.9007 44.8031 51.6441 45.1388 51.2863 45.3455L37.1236 53.5225C36.328 53.9816 35.5102 54.0894 34.6231 53.8517C34.1635 53.7285 33.7293 53.6048 33.3096 53.485C30.8656 52.788 28.9058 52.2299 25.8007 52.9334L23.1025 42.8635C24.3521 42.6188 25.3901 42.2299 26.321 41.8805C27.9241 41.2788 28.8 40.9876 29.6457 41.4758L33.0674 43.4512C34.2151 44.1138 35.446 44.2759 36.726 43.9329L39.2928 43.2451C40.3194 42.9702 41.3784 43.5816 41.6535 44.608C41.7995 45.153 41.6957 45.7072 41.4125 46.1483C41.3965 46.1688 41.3821 46.1903 41.369 46.2126C41.11 46.584 40.728 46.8518 40.2905 46.9687L36.5371 47.9744C35.8957 48.1462 35.2692 48.1521 34.675 47.9918C34.6006 47.9713 34.5228 47.9656 34.4462 47.9753C34.3696 47.9849 34.2956 48.0096 34.2286 48.0479C34.1615 48.0862 34.1027 48.1374 34.0555 48.1985C34.0083 48.2596 33.9737 48.3295 33.9535 48.404C33.9334 48.4786 33.9282 48.5564 33.9383 48.6329C33.9484 48.7095 33.9734 48.7833 34.0121 48.8502C34.0508 48.917 34.1023 48.9755 34.1637 49.0224C34.2251 49.0692 34.2951 49.1035 34.3698 49.1232C34.7564 49.2276 35.1551 49.2804 35.5556 49.2802C35.9785 49.2802 36.408 49.2222 36.8404 49.1062L40.5938 48.1005C41.2967 47.9123 41.878 47.4948 42.2803 46.9506L49.7296 42.6496C50.0877 42.4429 50.5069 42.3887 50.91 42.4966C51.3132 42.6048 51.6489 42.8613 51.8556 43.2193C52.0623 43.5774 52.1166 43.9967 52.0086 44.4ZM24.6551 17.4955C24.7328 17.3609 24.8608 17.2627 25.0109 17.2225C25.161 17.1823 25.3209 17.2033 25.4555 17.281L27.5317 18.4798C27.6652 18.558 27.7623 18.6859 27.8018 18.8355C27.8414 18.9851 27.8201 19.1442 27.7428 19.2782C27.6654 19.4122 27.5382 19.5102 27.3889 19.5507C27.2395 19.5912 27.0802 19.5711 26.9457 19.4946L24.8696 18.2959C24.8029 18.2574 24.7445 18.2062 24.6976 18.1451C24.6508 18.0841 24.6164 18.0144 24.5965 17.9401C24.5766 17.8658 24.5715 17.7882 24.5816 17.7119C24.5916 17.6357 24.6166 17.5621 24.6551 17.4955ZM22.7406 24.6404C22.7406 24.485 22.8023 24.3359 22.9122 24.2261C23.0221 24.1162 23.1711 24.0544 23.3265 24.0544H25.7239C26.0475 24.0544 26.3099 24.3167 26.3099 24.6404C26.3099 24.9641 26.0475 25.2263 25.7239 25.2263H23.3265C23.1711 25.2263 23.0221 25.1646 22.9122 25.0547C22.8023 24.9448 22.7406 24.7958 22.7406 24.6404ZM27.7461 30.0006C27.8238 30.1352 27.8449 30.2951 27.8047 30.4452C27.7644 30.5953 27.6662 30.7233 27.5317 30.801L25.4554 31.9998C25.3888 32.0383 25.3152 32.0633 25.2389 32.0733C25.1626 32.0834 25.0851 32.0783 25.0108 32.0584C24.9365 32.0385 24.8668 32.0041 24.8057 31.9572C24.7447 31.9104 24.6935 31.852 24.655 31.7853C24.5773 31.6507 24.5563 31.4908 24.5965 31.3407C24.6367 31.1906 24.7349 31.0626 24.8695 30.9849L26.9457 29.7862C27.0803 29.7085 27.2402 29.6874 27.3903 29.7276C27.5404 29.7678 27.6684 29.866 27.7461 30.0006ZM46.3146 19.2802C46.2369 19.1456 46.2159 18.9856 46.2561 18.8355C46.2963 18.6854 46.3945 18.5575 46.5291 18.4798L48.6053 17.281C48.7399 17.2045 48.8991 17.1844 49.0485 17.2249C49.1978 17.2654 49.325 17.3634 49.4024 17.4974C49.4797 17.6314 49.501 17.7906 49.4614 17.9401C49.4219 18.0897 49.3248 18.2176 49.1913 18.2959L47.115 19.4946C47.0484 19.5331 46.9748 19.5581 46.8985 19.5682C46.8223 19.5782 46.7447 19.5731 46.6704 19.5532C46.5961 19.5333 46.5264 19.4989 46.4653 19.4521C46.4043 19.4052 46.3531 19.3468 46.3146 19.2802ZM48.3369 24.0544H50.7343C51.0579 24.0544 51.3203 24.3167 51.3203 24.6404C51.3203 24.9641 51.0579 25.2263 50.7343 25.2263H48.3369C48.0133 25.2263 47.751 24.9641 47.751 24.6404C47.751 24.3167 48.0132 24.0544 48.3369 24.0544ZM46.3146 30.0006C46.3923 29.866 46.5203 29.7678 46.6704 29.7276C46.8205 29.6874 46.9805 29.7085 47.115 29.7862L49.1913 30.9849C49.3248 31.0632 49.4219 31.191 49.4614 31.3406C49.501 31.4902 49.4797 31.6494 49.4024 31.7834C49.325 31.9174 49.1978 32.0153 49.0485 32.0559C48.8991 32.0964 48.7399 32.0762 48.6053 31.9998L46.5291 30.801C46.3945 30.7233 46.2963 30.5953 46.2561 30.4452C46.2159 30.2951 46.2369 30.1352 46.3146 30.0006ZM32.0646 32.6604C31.6339 32.981 31.3545 33.4937 31.3545 34.0706C31.3542 34.5031 31.514 34.9203 31.8032 35.2419C31.514 35.5634 31.3542 35.9807 31.3545 36.4131C31.3545 37.38 32.1395 38.1669 33.1056 38.1702C33.2857 38.9374 33.6996 39.6362 34.3024 40.1763C35.0421 40.8392 36.0025 41.2043 37.0067 41.2043C38.904 41.2043 40.4992 39.9309 40.9081 38.1702C41.873 38.1654 42.6566 37.3791 42.6566 36.4131C42.6569 35.9807 42.4971 35.5634 42.2079 35.2419C42.4971 34.9203 42.6569 34.5031 42.6566 34.0706C42.6566 33.5112 42.3935 33.0124 41.985 32.6904C42.1679 32.193 42.4057 31.752 42.6488 31.4684C44.5746 29.2219 45.5925 26.7329 45.5925 24.2705C45.5925 22.0942 44.6996 20.045 43.0782 18.5005C41.4681 16.9664 39.3228 16.1062 37.0376 16.0781C37.0328 16.078 37.028 16.078 37.0232 16.0781C34.738 16.1062 32.5928 16.9664 30.9825 18.5004C29.3611 20.045 28.4682 22.0941 28.4682 24.2704C28.4682 26.733 29.4862 29.2219 31.412 31.4684C31.6503 31.7464 31.8832 32.1754 32.0646 32.6604ZM36.5708 32.3134L34.9248 25.3293L36.6156 27.0244C36.67 27.079 36.7347 27.1223 36.8059 27.1518C36.877 27.1814 36.9534 27.1966 37.0304 27.1966C37.1075 27.1966 37.1838 27.1814 37.255 27.1518C37.3262 27.1223 37.3908 27.079 37.4453 27.0244L39.1225 25.3429L37.4442 32.3134H36.5708ZM40.8994 33.4852C41.2221 33.4852 41.4848 33.7478 41.4848 34.0706C41.4848 34.3934 41.2222 34.6559 40.8994 34.6559H33.1117C32.7889 34.6559 32.5264 34.3934 32.5264 34.0706C32.5264 33.7478 32.7889 33.4852 33.1117 33.4852H40.8994ZM37.0068 40.0324C35.7836 40.0324 34.7129 39.2562 34.328 38.1762L39.6816 38.1969C39.2957 39.2779 38.2418 40.0324 37.0068 40.0324ZM40.8994 36.9985H33.1117C32.7889 36.9985 32.5264 36.7359 32.5264 36.4131C32.5264 36.0904 32.7889 35.8278 33.1117 35.8278H40.8994C41.2221 35.8278 41.4848 36.0904 41.4848 36.4131C41.4848 36.7359 41.2222 36.9985 40.8994 36.9985ZM37.0304 17.25C41.106 17.3038 44.4207 20.4517 44.4207 24.2704C44.4207 26.4492 43.5003 28.6744 41.7591 30.7057C41.4206 31.1006 41.1082 31.6719 40.8752 32.3133H38.6496L40.75 23.5898C40.78 23.4656 40.7685 23.335 40.7173 23.2179C40.6661 23.1008 40.5781 23.0037 40.4666 22.9413C40.3551 22.8788 40.2262 22.8546 40.0996 22.8722C39.9731 22.8898 39.8557 22.9483 39.7655 23.0388L37.0304 25.781L34.2953 23.0388C34.2053 22.9484 34.0882 22.8899 33.9619 22.8721C33.8356 22.8543 33.7069 22.8782 33.5954 22.9403C33.4839 23.0023 33.3957 23.099 33.3442 23.2158C33.2928 23.3325 33.2808 23.4629 33.3102 23.587L35.3668 32.3133H33.1856C32.9526 31.672 32.6403 31.1008 32.3017 30.7056C30.5604 28.6745 29.6401 26.4493 29.6401 24.2704C29.6401 20.4518 32.9548 17.3039 37.0304 17.25Z" fill="#5BC5D1"></path><circle cx="36" cy="36" r="36" fill="#FFF2F2" fill-opacity="0.08"></circle></svg>