<svg xmlns="http://www.w3.org/2000/svg" width="20" height="21" viewBox="0 0 20 21" fill="none"><path d="M19.2572 4.27989C19.2572 4.27708 19.2572 4.27458 19.2564 4.27177C19.2556 4.26896 19.2553 4.26192 19.255 4.25708C19.2533 4.23539 19.2489 4.21398 19.242 4.19333C19.2411 4.19052 19.242 4.18755 19.2403 4.18474C19.2386 4.18192 19.2387 4.18239 19.2383 4.18114C19.2294 4.15845 19.2174 4.13705 19.2028 4.11755C19.1995 4.11317 19.1961 4.10927 19.1925 4.10505C19.1783 4.08782 19.162 4.07239 19.1441 4.05911C19.1422 4.05771 19.1406 4.05599 19.1387 4.05474C19.1187 4.04151 19.0969 4.031 19.0741 4.02349C19.0687 4.02161 19.0634 4.02005 19.0584 4.01849C19.0344 4.01127 19.0095 4.00743 18.9844 4.00708H1.015C0.989903 4.00743 0.964977 4.01127 0.940937 4.01849C0.935469 4.02005 0.930312 4.02161 0.925312 4.02349C0.902465 4.031 0.880714 4.04151 0.860625 4.05474C0.85875 4.05599 0.857187 4.05771 0.855312 4.05911C0.837356 4.07239 0.82109 4.08782 0.806875 4.10505C0.803438 4.10927 0.799844 4.11317 0.796563 4.11755C0.781932 4.13705 0.770001 4.15845 0.761094 4.18114C0.761094 4.18239 0.759531 4.18349 0.759062 4.18474C0.758594 4.18599 0.758281 4.19052 0.757344 4.19333C0.750476 4.21398 0.746122 4.23539 0.744375 4.25708C0.744375 4.26208 0.742969 4.26692 0.742969 4.27177C0.742969 4.27661 0.742188 4.27708 0.742188 4.27989V16.7197C0.742188 16.7233 0.743125 16.7268 0.743281 16.7304C0.743737 16.7402 0.744728 16.75 0.74625 16.7597C0.7475 16.7677 0.748594 16.7754 0.750469 16.7835C0.75288 16.793 0.755801 16.8023 0.759219 16.8115C0.761875 16.8188 0.764375 16.8261 0.767656 16.8332C0.771989 16.8424 0.776841 16.8514 0.782188 16.86C0.785938 16.8663 0.789687 16.8727 0.793906 16.8786C0.799964 16.8869 0.806485 16.8948 0.813437 16.9024C0.818594 16.908 0.82375 16.9136 0.829062 16.919C0.832344 16.9219 0.834844 16.9255 0.838281 16.9285C0.841719 16.9315 0.843906 16.9311 0.846406 16.9332C0.867738 16.9504 0.89155 16.9642 0.917031 16.9743C0.9225 16.9765 0.928125 16.9777 0.93375 16.9794C0.958399 16.9875 0.984078 16.992 1.01 16.9927C1.01187 16.9927 1.01359 16.9936 1.01547 16.9936H18.9839C18.9858 16.9936 18.9875 16.9927 18.9892 16.9927C19.0152 16.992 19.0409 16.9875 19.0656 16.9794C19.0711 16.9777 19.0766 16.9765 19.0812 16.9743C19.1068 16.9642 19.1307 16.9504 19.152 16.9332C19.1545 16.9311 19.1577 16.9305 19.1602 16.9285C19.1627 16.9265 19.1661 16.9219 19.1694 16.919C19.175 16.9136 19.1802 16.9082 19.185 16.9024C19.192 16.8948 19.1985 16.8869 19.2045 16.8786C19.2087 16.8727 19.2125 16.8665 19.2162 16.86C19.2216 16.8514 19.2264 16.8424 19.2308 16.8332C19.2341 16.8261 19.2366 16.8188 19.2392 16.8115C19.2426 16.8023 19.2456 16.793 19.248 16.7835C19.2498 16.7757 19.2509 16.7679 19.2522 16.7597C19.2537 16.75 19.2547 16.7402 19.2552 16.7304C19.2552 16.7268 19.2562 16.7233 19.2562 16.7197L19.2572 4.27989ZM7.15562 9.92427L9.82094 12.2175C9.87057 12.2602 9.93385 12.2837 9.9993 12.2837C10.0647 12.2837 10.128 12.2602 10.1777 12.2175L12.8431 9.92427L18.3919 16.4463H1.60703L7.15562 9.92427ZM1.28844 15.9768V4.87599L6.74156 9.56755L1.28844 15.9768ZM13.2572 9.56755L18.7103 4.87599V15.9768L13.2572 9.56755ZM18.2464 4.55333L12.6987 9.32692C12.6978 9.32771 12.6966 9.32817 12.6956 9.32911L12.6927 9.33224L9.99937 11.6496L7.30609 9.33224L7.30312 9.32911L7.3 9.32692L1.75203 4.55333H18.2464Z" fill="white"></path></svg>