<svg xmlns="http://www.w3.org/2000/svg" width="20" height="20" viewBox="0 0 20 20" fill="none"><path d="M10.0383 1.56251C9.82231 1.56095 9.64613 1.73478 9.64457 1.9504C9.64301 2.16603 9.81645 2.3422 10.0325 2.34376C10.2481 2.34532 10.4243 2.17189 10.4258 1.95626C10.4274 1.74064 10.2539 1.56446 10.0383 1.56251ZM10.0205 3.90622C8.51231 3.89552 7.27711 5.11228 7.2657 6.62005C7.25434 8.12774 8.47176 9.36353 9.97953 9.37489L10.0005 9.37497C11.4986 9.37497 12.723 8.16185 12.7344 6.66107C12.7457 5.15345 11.5284 3.91759 10.0205 3.90622ZM10.0004 8.59376L9.98539 8.59368C8.9084 8.58556 8.03879 7.70282 8.04691 6.62591C8.055 5.55384 8.92953 4.68735 9.99969 4.68735L10.0147 4.68743C11.0917 4.69556 11.9613 5.57829 11.9532 6.65521C11.945 7.72728 11.0705 8.59376 10.0004 8.59376ZM11.7044 1.85876C11.5012 1.78665 11.2778 1.8931 11.2057 2.09646C11.1336 2.29982 11.24 2.52306 11.4434 2.59517C13.1639 3.20497 14.3106 4.84368 14.2969 6.67286C14.2953 6.88857 14.4688 7.06478 14.6846 7.06642H14.6876C14.9019 7.06642 15.0765 6.89345 15.0781 6.67872C15.0944 4.51673 13.7386 2.57974 11.7044 1.85876Z" fill="white"></path><path d="M12.3969 14.7048C14.9951 11.3604 16.6188 9.61648 16.6407 6.69055C16.6682 3.00918 13.6806 0 9.99952 0C6.3614 0 3.38725 2.94641 3.3596 6.59094C3.33725 9.59621 4.99112 11.3378 7.60722 14.7042C5.00468 15.0931 3.3596 16.0704 3.3596 17.2656C3.3596 18.0663 4.09968 18.7848 5.44354 19.2887C6.66671 19.7473 8.28495 20 10.0001 20C11.7153 20 13.3336 19.7473 14.5567 19.2887C15.9006 18.7847 16.6407 18.0662 16.6407 17.2656C16.6407 16.071 14.9971 15.094 12.3969 14.7048ZM4.14081 6.59684C4.16518 3.38086 6.78921 0.78125 9.9996 0.78125C13.248 0.78125 15.8837 3.43703 15.8595 6.68473C15.8387 9.4634 14.1167 11.1758 11.3676 14.7595C10.8773 15.3984 10.427 16.0025 10.0007 16.5934C9.57573 16.0021 9.1344 15.4089 8.63671 14.7593C5.77397 11.0255 4.11964 9.44254 4.14081 6.59684ZM10.0001 19.2188C6.64659 19.2188 4.14081 18.1876 4.14081 17.2656C4.14081 16.5819 5.63878 15.7181 8.15745 15.419C8.71421 16.1495 9.20233 16.8132 9.68108 17.491C9.71712 17.542 9.76487 17.5837 9.82033 17.6124C9.87578 17.6412 9.93733 17.6562 9.99979 17.6562H10.0001C10.0626 17.6562 10.1241 17.6413 10.1795 17.6126C10.235 17.584 10.2827 17.5424 10.3188 17.4915C10.793 16.8225 11.2945 16.1425 11.8465 15.4195C14.3628 15.7189 15.8595 16.5823 15.8595 17.2657C15.8594 18.1876 13.3537 19.2188 10.0001 19.2188Z" fill="white"></path></svg>