<svg xmlns="http://www.w3.org/2000/svg" width="20" height="21" viewBox="0 0 20 21" fill="none"><path d="M11.2578 1.76828C15.381 1.76828 18.7354 5.12267 18.7354 9.24585" stroke="white" stroke-miterlimit="10" stroke-linecap="round" stroke-linejoin="round"></path><path d="M11.2578 3.9046C14.2028 3.9046 16.5991 6.3009 16.5991 9.24585" stroke="white" stroke-miterlimit="10" stroke-linecap="round" stroke-linejoin="round"></path><path d="M11.2578 6.04135C13.0249 6.04135 14.4623 7.47881 14.4623 9.24585" stroke="white" stroke-miterlimit="10" stroke-linecap="round" stroke-linejoin="round"></path><path d="M11.2578 8.17767C11.8477 8.17767 12.326 8.65604 12.326 9.24585" stroke="white" stroke-miterlimit="10" stroke-linecap="round" stroke-linejoin="round"></path><path d="M7.20863 12.7986C7.12861 12.7986 7.06374 12.8635 7.06374 12.9435C7.06374 13.0235 7.12858 13.0884 7.20863 13.0884C7.28868 13.0884 7.35352 13.0235 7.35352 12.9435C7.35352 12.8634 7.28864 12.7986 7.20863 12.7986Z" fill="white" stroke="white"></path><path d="M6.17115 11.7291C5.94542 11.4326 5.73196 11.127 5.5313 10.813C5.26714 10.3993 5.34704 9.85136 5.69395 9.50441L6.89959 8.29877C7.15914 8.03957 7.15914 7.61876 6.89959 7.3595L4.0622 4.52218C3.80297 4.26256 3.3822 4.26256 3.12297 4.52218L2.40489 5.24018C1.23945 6.40534 0.924465 8.18371 1.656 9.66027C2.95748 12.2877 5.63574 16.3154 10.7955 18.8456C12.2767 19.5715 14.0633 19.2636 15.2295 18.0974L15.9638 17.363C16.2234 17.1038 16.2234 16.683 15.9638 16.4234L13.1265 13.5864C12.8672 13.3268 12.4464 13.3268 12.1872 13.5864L10.9816 14.792C10.6346 15.1389 10.0867 15.2188 9.67298 14.9547C9.22637 14.6693 8.79681 14.358 8.38648 14.0225" stroke="white" stroke-miterlimit="10" stroke-linecap="round" stroke-linejoin="round"></path></svg>