<svg xmlns="http://www.w3.org/2000/svg" width="20" height="20" viewBox="0 0 20 20" fill="none"><g clip-path="url(#clip0_67_2630)"><path d="M11.2578 1.26804C15.381 1.26804 18.7354 4.62243 18.7354 8.74561" stroke="white" stroke-miterlimit="10" stroke-linecap="round" stroke-linejoin="round"></path><path d="M11.2578 3.40436C14.2028 3.40436 16.5991 5.80066 16.5991 8.74561" stroke="white" stroke-miterlimit="10" stroke-linecap="round" stroke-linejoin="round"></path><path d="M11.2578 5.54111C13.0249 5.54111 14.4623 6.97857 14.4623 8.74561" stroke="white" stroke-miterlimit="10" stroke-linecap="round" stroke-linejoin="round"></path><path d="M11.2578 7.67743C11.8477 7.67743 12.326 8.1558 12.326 8.74561" stroke="white" stroke-miterlimit="10" stroke-linecap="round" stroke-linejoin="round"></path><path d="M7.20863 12.2983C7.12861 12.2983 7.06374 12.3632 7.06374 12.4432C7.06374 12.5232 7.12858 12.5881 7.20863 12.5881C7.28868 12.5881 7.35352 12.5233 7.35352 12.4432C7.35352 12.3632 7.28864 12.2983 7.20863 12.2983Z" fill="white" stroke="white"></path><path d="M6.17115 11.2291C5.94542 10.9326 5.73196 10.627 5.5313 10.313C5.26714 9.89929 5.34704 9.35136 5.69395 9.00441L6.89959 7.79877C7.15914 7.53957 7.15914 7.11876 6.89959 6.8595L4.0622 4.02218C3.80297 3.76256 3.3822 3.76256 3.12297 4.02218L2.40489 4.74018C1.23945 5.90534 0.924465 7.68371 1.656 9.16027C2.95748 11.7877 5.63574 15.8154 10.7955 18.3456C12.2767 19.0715 14.0633 18.7636 15.2295 17.5974L15.9638 16.863C16.2234 16.6038 16.2234 16.183 15.9638 15.9234L13.1265 13.0864C12.8672 12.8268 12.4464 12.8268 12.1872 13.0864L10.9816 14.292C10.6346 14.6389 10.0867 14.7188 9.67298 14.4547C9.22637 14.1693 8.79681 13.858 8.38648 13.5225" stroke="white" stroke-miterlimit="10" stroke-linecap="round" stroke-linejoin="round"></path></g><defs><clipPath id="clip0_67_2630"><rect width="20" height="20" fill="white"></rect></clipPath></defs></svg>