<svg xmlns="http://www.w3.org/2000/svg" width="20" height="20" viewBox="0 0 20 20" fill="none"><path d="M14.0041 12.2791C13.9285 12.2794 13.8553 12.2529 13.7975 12.2043L11.3931 10.2571C11.3553 10.2257 11.3248 10.1864 11.304 10.142C11.2831 10.0975 11.2722 10.049 11.2722 9.99993V4.61531C11.2722 4.52788 11.3069 4.44403 11.3688 4.3822C11.4306 4.32038 11.5145 4.28564 11.6019 4.28564C11.6893 4.28564 11.7732 4.32038 11.835 4.3822C11.8968 4.44403 11.9316 4.52788 11.9316 4.61531V9.84389L14.2129 11.6922C14.2671 11.7357 14.3063 11.7951 14.3248 11.8621C14.3432 11.9291 14.34 12.0002 14.3157 12.0653C14.2913 12.1304 14.247 12.1861 14.189 12.2245C14.1311 12.2629 14.0625 12.282 13.9931 12.2791H14.0041ZM8.292 13.5999H4.61507C4.52764 13.5999 4.44379 13.5652 4.38196 13.5034C4.32013 13.4415 4.2854 13.3577 4.2854 13.2703C4.2854 13.1828 4.32013 13.099 4.38196 13.0371C4.44379 12.9753 4.52764 12.9406 4.61507 12.9406H8.292C8.37943 12.9406 8.46328 12.9753 8.52511 13.0371C8.58693 13.099 8.62167 13.1828 8.62167 13.2703C8.62167 13.3577 8.58693 13.4415 8.52511 13.5034C8.46328 13.5652 8.37943 13.5999 8.292 13.5999ZM6.79969 10.0615H0.612873C0.525439 10.0615 0.441587 10.0267 0.379761 9.96491C0.317936 9.90308 0.283203 9.81923 0.283203 9.7318C0.283203 9.64436 0.317936 9.56051 0.379761 9.49869C0.441587 9.43686 0.525439 9.40213 0.612873 9.40213H6.79969C6.88712 9.40213 6.97097 9.43686 7.0328 9.49869C7.09462 9.56051 7.12936 9.64436 7.12936 9.7318C7.12936 9.81923 7.09462 9.90308 7.0328 9.96491C6.97097 10.0267 6.88712 10.0615 6.79969 10.0615ZM4.44584 6.48345H2.24804C2.1606 6.48345 2.07675 6.44871 2.01493 6.38689C1.9531 6.32506 1.91837 6.24121 1.91837 6.15378C1.91837 6.06634 1.9531 5.98249 2.01493 5.92066C2.07675 5.85884 2.1606 5.82411 2.24804 5.82411H4.44584C4.53327 5.82411 4.61713 5.85884 4.67895 5.92066C4.74078 5.98249 4.77551 6.06634 4.77551 6.15378C4.77551 6.24121 4.74078 6.32506 4.67895 6.38689C4.61713 6.44871 4.53327 6.48345 4.44584 6.48345ZM11.6019 16.2637C11.5145 16.2637 11.4306 16.2289 11.3688 16.1671C11.3069 16.1053 11.2722 16.0214 11.2722 15.934V15.8681C11.2722 15.7806 11.3069 15.6968 11.3688 15.6349C11.4306 15.5731 11.5145 15.5384 11.6019 15.5384C11.6893 15.5384 11.7732 15.5731 11.835 15.6349C11.8968 15.6968 11.9316 15.7806 11.9316 15.8681V15.934C11.9316 16.0214 11.8968 16.1053 11.835 16.1671C11.7732 16.2289 11.6893 16.2637 11.6019 16.2637ZM17.7425 10.3296H17.6766C17.5892 10.3296 17.5053 10.2949 17.4435 10.233C17.3817 10.1712 17.3469 10.0874 17.3469 9.99993C17.3469 9.9125 17.3817 9.82864 17.4435 9.76682C17.5053 9.70499 17.5892 9.67026 17.6766 9.67026H17.7425C17.83 9.67026 17.9138 9.70499 17.9757 9.76682C18.0375 9.82864 18.0722 9.9125 18.0722 9.99993C18.0722 10.0874 18.0375 10.1712 17.9757 10.233C17.9138 10.2949 17.83 10.3296 17.7425 10.3296Z" fill="white"></path><path d="M3.91408 11.3976C3.83472 11.3978 3.75798 11.3691 3.69815 11.317C3.63832 11.2648 3.59946 11.1927 3.58881 11.1141C3.53812 10.7448 3.51388 10.3725 3.51628 9.99978C3.51628 9.91235 3.55101 9.82849 3.61284 9.76667C3.67467 9.70484 3.75852 9.67011 3.84595 9.67011C3.93339 9.67011 4.01724 9.70484 4.07906 9.76667C4.14089 9.82849 4.17562 9.91235 4.17562 9.99978C4.17566 10.3416 4.19916 10.6831 4.24595 11.0218C4.25178 11.0653 4.24887 11.1095 4.23737 11.1519C4.22588 11.1942 4.20604 11.2339 4.17902 11.2685C4.15199 11.3031 4.11833 11.3319 4.08001 11.3534C4.04168 11.3748 3.99947 11.3883 3.95584 11.3932L3.91408 11.3976ZM11.602 18.0899C10.5147 18.0937 9.43792 17.8765 8.4371 17.4515C7.43629 17.0265 6.5323 16.4024 5.78002 15.6174C5.72985 15.5529 5.70543 15.4721 5.71147 15.3906C5.71751 15.3091 5.75359 15.2328 5.81271 15.1764C5.87183 15.12 5.94979 15.0876 6.03146 15.0854C6.11313 15.0832 6.1927 15.1115 6.25474 15.1646C6.94577 15.8852 7.77617 16.4577 8.69544 16.8473C9.6147 17.2368 10.6036 17.4353 11.602 17.4305C12.9264 17.4302 14.2267 17.0758 15.3682 16.4042C16.5097 15.7326 17.4509 14.768 18.0944 13.6105C18.738 12.4529 19.0605 11.1444 19.0285 9.82035C18.9965 8.49632 18.6112 7.20489 17.9126 6.07975C17.2139 4.95461 16.2272 4.03666 15.0546 3.42091C13.882 2.80517 12.5661 2.51401 11.2432 2.57758C9.92035 2.64114 8.63848 3.05713 7.53033 3.78246C6.42219 4.5078 5.52805 5.51613 4.94046 6.70308C4.9014 6.78148 4.83281 6.84115 4.74975 6.86897C4.6667 6.89679 4.576 6.89048 4.4976 6.85143C4.4192 6.81238 4.35953 6.74378 4.33171 6.66073C4.30388 6.57767 4.31019 6.48697 4.34925 6.40857C4.98901 5.11571 5.96272 4.01735 7.16957 3.22723C8.37642 2.4371 9.77253 1.98392 11.2134 1.91462C12.6542 1.84532 14.0873 2.16241 15.3645 2.83306C16.6416 3.50371 17.7162 4.50354 18.4771 5.72903C19.238 6.95453 19.6575 8.36113 19.6921 9.80321C19.7268 11.2453 19.3753 12.6704 18.6742 13.931C17.973 15.1917 16.9476 16.2419 15.7042 16.9732C14.4608 17.7044 13.0445 18.0899 11.602 18.0899ZM2.75584 13.5998H2.15584C2.06841 13.5998 1.98456 13.565 1.92273 13.5032C1.8609 13.4414 1.82617 13.3575 1.82617 13.2701C1.82617 13.1827 1.8609 13.0988 1.92273 13.037C1.98456 12.9752 2.06841 12.9404 2.15584 12.9404H2.75584C2.84328 12.9404 2.92713 12.9752 2.98895 13.037C3.05078 13.0988 3.08551 13.1827 3.08551 13.2701C3.08551 13.3575 3.05078 13.4414 2.98895 13.5032C2.92713 13.565 2.84328 13.5998 2.75584 13.5998Z" fill="white"></path><path d="M4.21472 7.84173C4.15921 7.84108 4.10474 7.82652 4.05632 7.79938C4.00789 7.77223 3.96705 7.73338 3.93753 7.68636C3.90801 7.63935 3.89076 7.58568 3.88735 7.53027C3.88394 7.47486 3.89448 7.41948 3.91801 7.3692L4.37516 6.41316C4.39377 6.37405 4.41991 6.33899 4.45207 6.30999C4.48424 6.28098 4.5218 6.25859 4.56262 6.2441C4.60343 6.22961 4.64671 6.2233 4.68996 6.22554C4.73322 6.22777 4.77561 6.2385 4.81472 6.25712C4.85382 6.27573 4.88888 6.30187 4.91789 6.33403C4.9469 6.3662 4.96928 6.40376 4.98377 6.44458C4.99826 6.4854 5.00457 6.52867 5.00234 6.57192C5.00011 6.61518 4.98938 6.65757 4.97076 6.69668L4.51362 7.65492C4.48637 7.71099 4.44388 7.75825 4.39102 7.79129C4.33815 7.82433 4.27705 7.84181 4.21472 7.84173Z" fill="white"></path></svg>