<svg xmlns="http://www.w3.org/2000/svg" width="20" height="21" viewBox="0 0 20 21" fill="none"><path d="M14.0041 12.7791C13.9285 12.7794 13.8553 12.7529 13.7975 12.7043L11.3931 10.7571C11.3553 10.7257 11.3248 10.6864 11.304 10.642C11.2831 10.5975 11.2722 10.549 11.2722 10.4999V5.11531C11.2722 5.02788 11.3069 4.94403 11.3688 4.8822C11.4306 4.82038 11.5145 4.78564 11.6019 4.78564C11.6893 4.78564 11.7732 4.82038 11.835 4.8822C11.8968 4.94403 11.9316 5.02788 11.9316 5.11531V10.3439L14.2129 12.1922C14.2671 12.2357 14.3063 12.2951 14.3248 12.3621C14.3432 12.4291 14.34 12.5002 14.3157 12.5653C14.2913 12.6304 14.247 12.6861 14.189 12.7245C14.1311 12.7629 14.0625 12.782 13.9931 12.7791H14.0041ZM8.292 14.0999H4.61507C4.52764 14.0999 4.44379 14.0652 4.38196 14.0034C4.32013 13.9415 4.2854 13.8577 4.2854 13.7703C4.2854 13.6828 4.32013 13.599 4.38196 13.5371C4.44379 13.4753 4.52764 13.4406 4.61507 13.4406H8.292C8.37943 13.4406 8.46328 13.4753 8.52511 13.5371C8.58693 13.599 8.62167 13.6828 8.62167 13.7703C8.62167 13.8577 8.58693 13.9415 8.52511 14.0034C8.46328 14.0652 8.37943 14.0999 8.292 14.0999ZM6.79969 10.5615H0.612873C0.525439 10.5615 0.441587 10.5267 0.379761 10.4649C0.317936 10.4031 0.283203 10.3192 0.283203 10.2318C0.283203 10.1444 0.317936 10.0605 0.379761 9.99869C0.441587 9.93686 0.525439 9.90213 0.612873 9.90213H6.79969C6.88712 9.90213 6.97097 9.93686 7.0328 9.99869C7.09462 10.0605 7.12936 10.1444 7.12936 10.2318C7.12936 10.3192 7.09462 10.4031 7.0328 10.4649C6.97097 10.5267 6.88712 10.5615 6.79969 10.5615ZM4.44584 6.98345H2.24804C2.1606 6.98345 2.07675 6.94871 2.01493 6.88689C1.9531 6.82506 1.91837 6.74121 1.91837 6.65378C1.91837 6.56634 1.9531 6.48249 2.01493 6.42066C2.07675 6.35884 2.1606 6.32411 2.24804 6.32411H4.44584C4.53327 6.32411 4.61713 6.35884 4.67895 6.42066C4.74078 6.48249 4.77551 6.56634 4.77551 6.65378C4.77551 6.74121 4.74078 6.82506 4.67895 6.88689C4.61713 6.94871 4.53327 6.98345 4.44584 6.98345ZM11.6019 16.7637C11.5145 16.7637 11.4306 16.7289 11.3688 16.6671C11.3069 16.6053 11.2722 16.5214 11.2722 16.434V16.3681C11.2722 16.2806 11.3069 16.1968 11.3688 16.1349C11.4306 16.0731 11.5145 16.0384 11.6019 16.0384C11.6893 16.0384 11.7732 16.0731 11.835 16.1349C11.8968 16.1968 11.9316 16.2806 11.9316 16.3681V16.434C11.9316 16.5214 11.8968 16.6053 11.835 16.6671C11.7732 16.7289 11.6893 16.7637 11.6019 16.7637ZM17.7425 10.8296H17.6766C17.5892 10.8296 17.5053 10.7949 17.4435 10.733C17.3817 10.6712 17.3469 10.5874 17.3469 10.4999C17.3469 10.4125 17.3817 10.3286 17.4435 10.2668C17.5053 10.205 17.5892 10.1703 17.6766 10.1703H17.7425C17.83 10.1703 17.9138 10.205 17.9757 10.2668C18.0375 10.3286 18.0722 10.4125 18.0722 10.4999C18.0722 10.5874 18.0375 10.6712 17.9757 10.733C17.9138 10.7949 17.83 10.8296 17.7425 10.8296Z" fill="white"></path><path d="M3.91408 11.8978C3.83472 11.898 3.75798 11.8694 3.69815 11.8172C3.63832 11.7651 3.59946 11.693 3.58881 11.6143C3.53812 11.2451 3.51388 10.8727 3.51628 10.5C3.51628 10.4126 3.55101 10.3287 3.61284 10.2669C3.67467 10.2051 3.75852 10.1704 3.84595 10.1704C3.93339 10.1704 4.01724 10.2051 4.07906 10.2669C4.14089 10.3287 4.17562 10.4126 4.17562 10.5C4.17566 10.8419 4.19916 11.1834 4.24595 11.522C4.25178 11.5655 4.24887 11.6098 4.23737 11.6521C4.22588 11.6945 4.20604 11.7341 4.17902 11.7687C4.15199 11.8033 4.11833 11.8322 4.08001 11.8536C4.04168 11.875 3.99947 11.8886 3.95584 11.8934L3.91408 11.8978ZM11.602 18.5901C10.5147 18.594 9.43792 18.3768 8.4371 17.9517C7.43629 17.5267 6.5323 16.9027 5.78002 16.1176C5.72985 16.0531 5.70543 15.9723 5.71147 15.8908C5.71751 15.8093 5.75359 15.733 5.81271 15.6766C5.87183 15.6202 5.94979 15.5878 6.03146 15.5856C6.11313 15.5835 6.1927 15.6117 6.25474 15.6649C6.94577 16.3855 7.77617 16.958 8.69544 17.3475C9.6147 17.7371 10.6036 17.9355 11.602 17.9308C12.9264 17.9304 14.2267 17.5761 15.3682 16.9044C16.5097 16.2328 17.4509 15.2683 18.0944 14.1107C18.738 12.9532 19.0605 11.6446 19.0285 10.3206C18.9965 8.99656 18.6112 7.70513 17.9126 6.57999C17.2139 5.45486 16.2272 4.5369 15.0546 3.92116C13.882 3.30541 12.5661 3.01425 11.2432 3.07782C9.92035 3.14139 8.63848 3.55737 7.53033 4.28271C6.42219 5.00805 5.52805 6.01638 4.94046 7.20332C4.9014 7.28172 4.83281 7.34139 4.74975 7.36922C4.6667 7.39704 4.576 7.39073 4.4976 7.35167C4.4192 7.31262 4.35953 7.24402 4.33171 7.16097C4.30388 7.07792 4.31019 6.98722 4.34925 6.90882C4.98901 5.61595 5.96272 4.5176 7.16957 3.72747C8.37642 2.93734 9.77253 2.48417 11.2134 2.41486C12.6542 2.34556 14.0873 2.66265 15.3645 3.3333C16.6416 4.00395 17.7162 5.00379 18.4771 6.22928C19.238 7.45477 19.6575 8.86137 19.6921 10.3035C19.7268 11.7455 19.3753 13.1707 18.6742 14.4313C17.973 15.6919 16.9476 16.7422 15.7042 17.4734C14.4608 18.2046 13.0445 18.5902 11.602 18.5901ZM2.75584 14.1H2.15584C2.06841 14.1 1.98456 14.0653 1.92273 14.0035C1.8609 13.9416 1.82617 13.8578 1.82617 13.7704C1.82617 13.6829 1.8609 13.5991 1.92273 13.5372C1.98456 13.4754 2.06841 13.4407 2.15584 13.4407H2.75584C2.84328 13.4407 2.92713 13.4754 2.98895 13.5372C3.05078 13.5991 3.08551 13.6829 3.08551 13.7704C3.08551 13.8578 3.05078 13.9416 2.98895 14.0035C2.92713 14.0653 2.84328 14.1 2.75584 14.1Z" fill="white"></path><path d="M4.21472 8.34173C4.15921 8.34108 4.10474 8.32652 4.05632 8.29938C4.00789 8.27223 3.96705 8.23338 3.93753 8.18636C3.90801 8.13935 3.89076 8.08568 3.88735 8.03027C3.88394 7.97486 3.89448 7.91948 3.91801 7.8692L4.37516 6.91316C4.39377 6.87405 4.41991 6.83899 4.45207 6.80999C4.48424 6.78098 4.5218 6.75859 4.56262 6.7441C4.60343 6.72961 4.64671 6.7233 4.68996 6.72554C4.73322 6.72777 4.77561 6.7385 4.81472 6.75712C4.85382 6.77573 4.88888 6.80187 4.91789 6.83403C4.9469 6.8662 4.96928 6.90376 4.98377 6.94458C4.99826 6.9854 5.00457 7.02867 5.00234 7.07192C5.00011 7.11518 4.98938 7.15757 4.97076 7.19668L4.51362 8.15492C4.48637 8.21099 4.44388 8.25825 4.39102 8.29129C4.33815 8.32433 4.27705 8.34181 4.21472 8.34173Z" fill="white"></path></svg>